<?xml version="1.0" encoding="UTF-8" standalone="no"?>
<!DOCTYPE svg PUBLIC "-//W3C//DTD SVG 1.1//EN"
 "http://www.w3.org/Graphics/SVG/1.1/DTD/svg11.dtd">
<!-- Generated by graphviz version 2.38.0 (20140413.2041)
 -->
<!-- Title: NFA Pages: 1 -->
<svg width="330pt" height="238pt"
 viewBox="0.00 0.00 329.60 238.00" xmlns="http://www.w3.org/2000/svg" xmlns:xlink="http://www.w3.org/1999/xlink">
<g id="graph0" class="graph" transform="scale(1 1) rotate(0) translate(4 234)">
<title>NFA</title>
<polygon fill="white" stroke="none" points="-4,4 -4,-234 325.6,-234 325.6,4 -4,4"/>
<!-- init -->
<g id="node1" class="node"><title>init</title>
<ellipse fill="black" stroke="black" cx="1.8" cy="-117" rx="1.8" ry="1.8"/>
</g>
<!-- 0 -->
<g id="node2" class="node"><title>0</title>
<ellipse fill="none" stroke="black" cx="58.6" cy="-117" rx="18" ry="18"/>
<text text-anchor="middle" x="58.6" y="-112.8" font-family="Times,serif" font-size="14.00">0</text>
</g>
<!-- init&#45;&gt;0 -->
<g id="edge1" class="edge"><title>init&#45;&gt;0</title>
<path fill="none" stroke="black" d="M3.75116,-117C7.11489,-117 18.875,-117 30.5503,-117"/>
<polygon fill="black" stroke="black" points="30.5754,-120.5 40.5754,-117 30.5753,-113.5 30.5754,-120.5"/>
</g>
<!-- 0&#45;&gt;0 -->
<g id="edge2" class="edge"><title>0&#45;&gt;0</title>
<path fill="none" stroke="black" d="M52.2208,-134.037C50.9189,-143.858 53.0453,-153 58.6,-153 62.0717,-153 64.2042,-149.429 64.9975,-144.353"/>
<polygon fill="black" stroke="black" points="68.4971,-144.031 64.9792,-134.037 61.4971,-144.044 68.4971,-144.031"/>
<text text-anchor="middle" x="58.6" y="-155.8" font-family="Times,serif" font-size="14.00">0</text>
</g>
<!-- 1 -->
<g id="node3" class="node"><title>1</title>
<ellipse fill="none" stroke="black" cx="137.6" cy="-117" rx="18" ry="18"/>
<text text-anchor="middle" x="137.6" y="-112.8" font-family="Times,serif" font-size="14.00">1</text>
</g>
<!-- 0&#45;&gt;1 -->
<g id="edge3" class="edge"><title>0&#45;&gt;1</title>
<path fill="none" stroke="black" d="M76.6888,-117C86.259,-117 98.4172,-117 109.277,-117"/>
<polygon fill="black" stroke="black" points="109.559,-120.5 119.559,-117 109.559,-113.5 109.559,-120.5"/>
<text text-anchor="middle" x="98.1" y="-119.8" font-family="Times,serif" font-size="14.00">1</text>
</g>
<!-- 2 -->
<g id="node4" class="node"><title>2</title>
<ellipse fill="none" stroke="black" cx="216.6" cy="-146" rx="18" ry="18"/>
<text text-anchor="middle" x="216.6" y="-141.8" font-family="Times,serif" font-size="14.00">2</text>
</g>
<!-- 1&#45;&gt;2 -->
<g id="edge4" class="edge"><title>1&#45;&gt;2</title>
<path fill="none" stroke="black" d="M154.93,-123.15C165.105,-126.982 178.414,-131.995 189.973,-136.348"/>
<polygon fill="black" stroke="black" points="188.966,-139.709 199.558,-139.958 191.433,-133.158 188.966,-139.709"/>
<text text-anchor="middle" x="177.1" y="-134.8" font-family="Times,serif" font-size="14.00">0</text>
</g>
<!-- 5 -->
<g id="node7" class="node"><title>5</title>
<ellipse fill="none" stroke="black" cx="216.6" cy="-84" rx="18" ry="18"/>
<text text-anchor="middle" x="216.6" y="-79.8" font-family="Times,serif" font-size="14.00">3</text>
</g>
<!-- 1&#45;&gt;5 -->
<g id="edge7" class="edge"><title>1&#45;&gt;5</title>
<path fill="none" stroke="black" d="M154.554,-110.162C164.879,-105.738 178.543,-99.8816 190.326,-94.8319"/>
<polygon fill="black" stroke="black" points="191.853,-97.9851 199.666,-90.8289 189.096,-91.5511 191.853,-97.9851"/>
<text text-anchor="middle" x="177.1" y="-103.8" font-family="Times,serif" font-size="14.00">1</text>
</g>
<!-- 3 -->
<g id="node5" class="node"><title>3</title>
<ellipse fill="none" stroke="black" cx="299.6" cy="-208" rx="18" ry="18"/>
<ellipse fill="none" stroke="black" cx="299.6" cy="-208" rx="22" ry="22"/>
<text text-anchor="middle" x="299.6" y="-203.8" font-family="Times,serif" font-size="14.00">4</text>
</g>
<!-- 2&#45;&gt;3 -->
<g id="edge5" class="edge"><title>2&#45;&gt;3</title>
<path fill="none" stroke="black" d="M231.341,-156.517C242.853,-165.33 259.587,-178.138 273.483,-188.775"/>
<polygon fill="black" stroke="black" points="271.629,-191.763 281.697,-195.062 275.883,-186.204 271.629,-191.763"/>
<text text-anchor="middle" x="256.1" y="-179.8" font-family="Times,serif" font-size="14.00">0</text>
</g>
<!-- 4 -->
<g id="node6" class="node"><title>4</title>
<ellipse fill="none" stroke="black" cx="299.6" cy="-146" rx="18" ry="18"/>
<ellipse fill="none" stroke="black" cx="299.6" cy="-146" rx="22" ry="22"/>
<text text-anchor="middle" x="299.6" y="-141.8" font-family="Times,serif" font-size="14.00">5</text>
</g>
<!-- 2&#45;&gt;4 -->
<g id="edge6" class="edge"><title>2&#45;&gt;4</title>
<path fill="none" stroke="black" d="M234.778,-146C244.21,-146 256.201,-146 267.237,-146"/>
<polygon fill="black" stroke="black" points="267.411,-149.5 277.411,-146 267.411,-142.5 267.411,-149.5"/>
<text text-anchor="middle" x="256.1" y="-148.8" font-family="Times,serif" font-size="14.00">1</text>
</g>
<!-- 6 -->
<g id="node8" class="node"><title>6</title>
<ellipse fill="none" stroke="black" cx="299.6" cy="-84" rx="18" ry="18"/>
<ellipse fill="none" stroke="black" cx="299.6" cy="-84" rx="22" ry="22"/>
<text text-anchor="middle" x="299.6" y="-79.8" font-family="Times,serif" font-size="14.00">7</text>
</g>
<!-- 5&#45;&gt;6 -->
<g id="edge8" class="edge"><title>5&#45;&gt;6</title>
<path fill="none" stroke="black" d="M234.778,-84C244.21,-84 256.201,-84 267.237,-84"/>
<polygon fill="black" stroke="black" points="267.411,-87.5001 277.411,-84 267.411,-80.5001 267.411,-87.5001"/>
<text text-anchor="middle" x="256.1" y="-86.8" font-family="Times,serif" font-size="14.00">1</text>
</g>
<!-- 7 -->
<g id="node9" class="node"><title>7</title>
<ellipse fill="none" stroke="black" cx="299.6" cy="-22" rx="18" ry="18"/>
<ellipse fill="none" stroke="black" cx="299.6" cy="-22" rx="22" ry="22"/>
<text text-anchor="middle" x="299.6" y="-17.8" font-family="Times,serif" font-size="14.00">6</text>
</g>
<!-- 5&#45;&gt;7 -->
<g id="edge9" class="edge"><title>5&#45;&gt;7</title>
<path fill="none" stroke="black" d="M231.341,-73.4825C242.853,-64.6705 259.587,-51.8617 273.483,-41.2251"/>
<polygon fill="black" stroke="black" points="275.883,-43.7957 281.697,-34.9383 271.629,-38.2372 275.883,-43.7957"/>
<text text-anchor="middle" x="256.1" y="-58.8" font-family="Times,serif" font-size="14.00">0</text>
</g>
</g>
</svg>
