<?xml version="1.0" encoding="UTF-8" standalone="no"?>
<!DOCTYPE svg PUBLIC "-//W3C//DTD SVG 1.1//EN"
 "http://www.w3.org/Graphics/SVG/1.1/DTD/svg11.dtd">
<!-- Generated by graphviz version 2.38.0 (20140413.2041)
 -->
<!-- Title: NFA Pages: 1 -->
<svg width="171pt" height="178pt"
 viewBox="0.00 0.00 170.81 178.00" xmlns="http://www.w3.org/2000/svg" xmlns:xlink="http://www.w3.org/1999/xlink">
<g id="graph0" class="graph" transform="scale(1 1) rotate(0) translate(4 174)">
<title>NFA</title>
<polygon fill="white" stroke="none" points="-4,4 -4,-174 166.814,-174 166.814,4 -4,4"/>
<!-- init -->
<g id="node1" class="node"><title>init</title>
<ellipse fill="black" stroke="black" cx="1.8" cy="-75" rx="1.8" ry="1.8"/>
</g>
<!-- 0 -->
<g id="node2" class="node"><title>0</title>
<ellipse fill="none" stroke="black" cx="58.6" cy="-75" rx="18" ry="18"/>
<text text-anchor="middle" x="58.6" y="-70.8" font-family="Times,serif" font-size="14.00">0</text>
</g>
<!-- init&#45;&gt;0 -->
<g id="edge1" class="edge"><title>init&#45;&gt;0</title>
<path fill="none" stroke="black" d="M3.75116,-75C7.11489,-75 18.875,-75 30.5503,-75"/>
<polygon fill="black" stroke="black" points="30.5754,-78.5001 40.5754,-75 30.5753,-71.5001 30.5754,-78.5001"/>
</g>
<!-- 1 -->
<g id="node3" class="node"><title>1</title>
<ellipse fill="none" stroke="black" cx="140.814" cy="-116" rx="18" ry="18"/>
<ellipse fill="none" stroke="black" cx="140.814" cy="-116" rx="22" ry="22"/>
<text text-anchor="middle" x="140.814" y="-111.8" font-family="Times,serif" font-size="14.00">1</text>
</g>
<!-- 0&#45;&gt;1 -->
<g id="edge2" class="edge"><title>0&#45;&gt;1</title>
<path fill="none" stroke="black" d="M75.066,-82.9052C85.5142,-88.2456 99.605,-95.4479 111.974,-101.77"/>
<polygon fill="black" stroke="black" points="110.51,-104.952 121.007,-106.387 113.696,-98.7195 110.51,-104.952"/>
<text text-anchor="middle" x="97.7069" y="-97.8" font-family="Times,serif" font-size="14.00">a</text>
</g>
<!-- 2 -->
<g id="node4" class="node"><title>2</title>
<ellipse fill="none" stroke="black" cx="140.814" cy="-22" rx="18" ry="18"/>
<ellipse fill="none" stroke="black" cx="140.814" cy="-22" rx="22" ry="22"/>
<text text-anchor="middle" x="140.814" y="-17.8" font-family="Times,serif" font-size="14.00">2</text>
</g>
<!-- 0&#45;&gt;2 -->
<g id="edge4" class="edge"><title>0&#45;&gt;2</title>
<path fill="none" stroke="black" d="M73.9406,-65.5247C84.8516,-58.3154 100.174,-48.1911 113.296,-39.521"/>
<polygon fill="black" stroke="black" points="115.534,-42.2375 121.948,-33.8046 111.675,-36.3972 115.534,-42.2375"/>
<text text-anchor="middle" x="97.7069" y="-53.8" font-family="Times,serif" font-size="14.00">a</text>
</g>
<!-- 1&#45;&gt;1 -->
<g id="edge3" class="edge"><title>1&#45;&gt;1</title>
<path fill="none" stroke="black" d="M133.131,-136.991C132.183,-147.087 134.744,-156 140.814,-156 144.703,-156 147.151,-152.342 148.159,-147.059"/>
<polygon fill="black" stroke="black" points="151.66,-147.102 148.497,-136.991 144.664,-146.868 151.66,-147.102"/>
<text text-anchor="middle" x="140.814" y="-158.8" font-family="Times,serif" font-size="14.00">b</text>
</g>
<!-- 2&#45;&gt;2 -->
<g id="edge5" class="edge"><title>2&#45;&gt;2</title>
<path fill="none" stroke="black" d="M133.131,-42.9908C132.183,-53.0872 134.744,-62 140.814,-62 144.703,-62 147.151,-58.3422 148.159,-53.0587"/>
<polygon fill="black" stroke="black" points="151.66,-53.1023 148.497,-42.9908 144.664,-52.868 151.66,-53.1023"/>
<text text-anchor="middle" x="140.814" y="-64.8" font-family="Times,serif" font-size="14.00">c</text>
</g>
</g>
</svg>
