<?xml version="1.0" encoding="UTF-8" standalone="no"?>
<!DOCTYPE svg PUBLIC "-//W3C//DTD SVG 1.1//EN"
 "http://www.w3.org/Graphics/SVG/1.1/DTD/svg11.dtd">
<!-- Generated by graphviz version 2.38.0 (20140413.2041)
 -->
<!-- Title: NFA Pages: 1 -->
<svg width="384pt" height="80pt"
 viewBox="0.00 0.00 384.48 80.00" xmlns="http://www.w3.org/2000/svg" xmlns:xlink="http://www.w3.org/1999/xlink">
<g id="graph0" class="graph" transform="scale(1 1) rotate(0) translate(4 76)">
<title>NFA</title>
<polygon fill="white" stroke="none" points="-4,4 -4,-76 380.479,-76 380.479,4 -4,4"/>
<!-- init -->
<g id="node1" class="node"><title>init</title>
<ellipse fill="black" stroke="black" cx="1.8" cy="-22" rx="1.8" ry="1.8"/>
</g>
<!-- 0 -->
<g id="node2" class="node"><title>0</title>
<ellipse fill="none" stroke="black" cx="58.6" cy="-22" rx="18" ry="18"/>
<text text-anchor="middle" x="58.6" y="-17.8" font-family="Times,serif" font-size="14.00">0</text>
</g>
<!-- init&#45;&gt;0 -->
<g id="edge1" class="edge"><title>init&#45;&gt;0</title>
<path fill="none" stroke="black" d="M3.75116,-22C7.11489,-22 18.875,-22 30.5503,-22"/>
<polygon fill="black" stroke="black" points="30.5754,-25.5001 40.5754,-22 30.5753,-18.5001 30.5754,-25.5001"/>
</g>
<!-- 0&#45;&gt;0 -->
<g id="edge2" class="edge"><title>0&#45;&gt;0</title>
<path fill="none" stroke="black" d="M52.2208,-39.0373C50.9189,-48.8579 53.0453,-58 58.6,-58 62.0717,-58 64.2042,-54.4289 64.9975,-49.3529"/>
<polygon fill="black" stroke="black" points="68.4971,-49.031 64.9792,-39.0373 61.4971,-49.0435 68.4971,-49.031"/>
<text text-anchor="middle" x="58.6" y="-60.8" font-family="Times,serif" font-size="14.00">{0, 1}</text>
</g>
<!-- 1 -->
<g id="node3" class="node"><title>1</title>
<ellipse fill="none" stroke="black" cx="137.6" cy="-22" rx="18" ry="18"/>
<text text-anchor="middle" x="137.6" y="-17.8" font-family="Times,serif" font-size="14.00">1</text>
</g>
<!-- 0&#45;&gt;1 -->
<g id="edge3" class="edge"><title>0&#45;&gt;1</title>
<path fill="none" stroke="black" d="M76.6888,-22C86.259,-22 98.4172,-22 109.277,-22"/>
<polygon fill="black" stroke="black" points="109.559,-25.5001 119.559,-22 109.559,-18.5001 109.559,-25.5001"/>
<text text-anchor="middle" x="98.1" y="-24.8" font-family="Times,serif" font-size="14.00">1</text>
</g>
<!-- 2 -->
<g id="node4" class="node"><title>2</title>
<ellipse fill="none" stroke="black" cx="244.039" cy="-22" rx="18" ry="18"/>
<text text-anchor="middle" x="244.039" y="-17.8" font-family="Times,serif" font-size="14.00">2</text>
</g>
<!-- 1&#45;&gt;2 -->
<g id="edge4" class="edge"><title>1&#45;&gt;2</title>
<path fill="none" stroke="black" d="M155.846,-22C172.098,-22 196.714,-22 215.651,-22"/>
<polygon fill="black" stroke="black" points="215.768,-25.5001 225.768,-22 215.768,-18.5001 215.768,-25.5001"/>
<text text-anchor="middle" x="190.82" y="-24.8" font-family="Times,serif" font-size="14.00">{0, 1}</text>
</g>
<!-- 3 -->
<g id="node5" class="node"><title>3</title>
<ellipse fill="none" stroke="black" cx="354.479" cy="-22" rx="18" ry="18"/>
<ellipse fill="none" stroke="black" cx="354.479" cy="-22" rx="22" ry="22"/>
<text text-anchor="middle" x="354.479" y="-17.8" font-family="Times,serif" font-size="14.00">3</text>
</g>
<!-- 2&#45;&gt;3 -->
<g id="edge5" class="edge"><title>2&#45;&gt;3</title>
<path fill="none" stroke="black" d="M262.462,-22C278.526,-22 302.749,-22 322.168,-22"/>
<polygon fill="black" stroke="black" points="322.38,-25.5001 332.38,-22 322.38,-18.5001 322.38,-25.5001"/>
<text text-anchor="middle" x="297.259" y="-24.8" font-family="Times,serif" font-size="14.00">{0, 1}</text>
</g>
</g>
</svg>
