<?xml version="1.0" encoding="UTF-8" standalone="no"?>
<!DOCTYPE svg PUBLIC "-//W3C//DTD SVG 1.1//EN"
 "http://www.w3.org/Graphics/SVG/1.1/DTD/svg11.dtd">
<!-- Generated by graphviz version 2.38.0 (20140413.2041)
 -->
<!-- Title: NFA Pages: 1 -->
<svg width="171pt" height="170pt"
 viewBox="0.00 0.00 170.81 170.00" xmlns="http://www.w3.org/2000/svg" xmlns:xlink="http://www.w3.org/1999/xlink">
<g id="graph0" class="graph" transform="scale(1 1) rotate(0) translate(4 166)">
<title>NFA</title>
<polygon fill="white" stroke="none" points="-4,4 -4,-166 166.814,-166 166.814,4 -4,4"/>
<!-- init -->
<g id="node1" class="node"><title>init</title>
<ellipse fill="black" stroke="black" cx="1.8" cy="-69" rx="1.8" ry="1.8"/>
</g>
<!-- 0 -->
<g id="node2" class="node"><title>0</title>
<ellipse fill="none" stroke="black" cx="58.6" cy="-69" rx="18" ry="18"/>
<text text-anchor="middle" x="58.6" y="-64.8" font-family="Times,serif" font-size="14.00">0</text>
</g>
<!-- init&#45;&gt;0 -->
<g id="edge1" class="edge"><title>init&#45;&gt;0</title>
<path fill="none" stroke="black" d="M3.75116,-69C7.11489,-69 18.875,-69 30.5503,-69"/>
<polygon fill="black" stroke="black" points="30.5754,-72.5001 40.5754,-69 30.5753,-65.5001 30.5754,-72.5001"/>
</g>
<!-- 1 -->
<g id="node3" class="node"><title>1</title>
<ellipse fill="none" stroke="black" cx="140.814" cy="-108" rx="18" ry="18"/>
<ellipse fill="none" stroke="black" cx="140.814" cy="-108" rx="22" ry="22"/>
<text text-anchor="middle" x="140.814" y="-103.8" font-family="Times,serif" font-size="14.00">1</text>
</g>
<!-- 0&#45;&gt;1 -->
<g id="edge2" class="edge"><title>0&#45;&gt;1</title>
<path fill="none" stroke="black" d="M75.066,-76.5196C85.4417,-81.5642 99.4094,-88.3554 111.716,-94.3386"/>
<polygon fill="black" stroke="black" points="110.191,-97.4893 120.715,-98.7143 113.252,-91.194 110.191,-97.4893"/>
<text text-anchor="middle" x="97.7069" y="-90.8" font-family="Times,serif" font-size="14.00">a</text>
</g>
<!-- 2 -->
<g id="node4" class="node"><title>2</title>
<ellipse fill="none" stroke="black" cx="140.814" cy="-18" rx="18" ry="18"/>
<text text-anchor="middle" x="140.814" y="-13.8" font-family="Times,serif" font-size="14.00">2</text>
</g>
<!-- 0&#45;&gt;2 -->
<g id="edge4" class="edge"><title>0&#45;&gt;2</title>
<path fill="none" stroke="black" d="M74.3125,-59.6458C86.0719,-52.1692 102.779,-41.5466 116.377,-32.9013"/>
<polygon fill="black" stroke="black" points="118.634,-35.6139 125.195,-27.2949 114.878,-29.7067 118.634,-35.6139"/>
<text text-anchor="middle" x="97.7069" y="-48.8" font-family="Times,serif" font-size="14.00">a</text>
</g>
<!-- 1&#45;&gt;1 -->
<g id="edge3" class="edge"><title>1&#45;&gt;1</title>
<path fill="none" stroke="black" d="M133.131,-128.991C132.183,-139.087 134.744,-148 140.814,-148 144.703,-148 147.151,-144.342 148.159,-139.059"/>
<polygon fill="black" stroke="black" points="151.66,-139.102 148.497,-128.991 144.664,-138.868 151.66,-139.102"/>
<text text-anchor="middle" x="140.814" y="-150.8" font-family="Times,serif" font-size="14.00">a</text>
</g>
<!-- 2&#45;&gt;2 -->
<g id="edge5" class="edge"><title>2&#45;&gt;2</title>
<path fill="none" stroke="black" d="M133.431,-34.6641C131.79,-44.625 134.251,-54 140.814,-54 145.018,-54 147.539,-50.1525 148.376,-44.7682"/>
<polygon fill="black" stroke="black" points="151.874,-44.6002 148.197,-34.6641 144.875,-44.7247 151.874,-44.6002"/>
<text text-anchor="middle" x="140.814" y="-56.8" font-family="Times,serif" font-size="14.00">a</text>
</g>
</g>
</svg>
