<?xml version="1.0" encoding="UTF-8" standalone="no"?>
<!DOCTYPE svg PUBLIC "-//W3C//DTD SVG 1.1//EN"
 "http://www.w3.org/Graphics/SVG/1.1/DTD/svg11.dtd">
<!-- Generated by graphviz version 2.38.0 (20140413.2041)
 -->
<!-- Title: NFA Pages: 1 -->
<svg width="199pt" height="52pt"
 viewBox="0.00 0.00 199.04 52.00" xmlns="http://www.w3.org/2000/svg" xmlns:xlink="http://www.w3.org/1999/xlink">
<g id="graph0" class="graph" transform="scale(1 1) rotate(0) translate(4 48)">
<title>NFA</title>
<polygon fill="white" stroke="none" points="-4,4 -4,-48 195.039,-48 195.039,4 -4,4"/>
<!-- init -->
<g id="node1" class="node"><title>init</title>
<ellipse fill="black" stroke="black" cx="1.8" cy="-22" rx="1.8" ry="1.8"/>
</g>
<!-- 0 -->
<g id="node2" class="node"><title>0</title>
<ellipse fill="none" stroke="black" cx="62.6" cy="-22" rx="18" ry="18"/>
<ellipse fill="none" stroke="black" cx="62.6" cy="-22" rx="22" ry="22"/>
<text text-anchor="middle" x="62.6" y="-17.8" font-family="Times,serif" font-size="14.00">0</text>
</g>
<!-- init&#45;&gt;0 -->
<g id="edge1" class="edge"><title>init&#45;&gt;0</title>
<path fill="none" stroke="black" d="M3.82058,-22C7.19394,-22 18.4374,-22 30.1209,-22"/>
<polygon fill="black" stroke="black" points="30.3147,-25.5001 40.3147,-22 30.3147,-18.5001 30.3147,-25.5001"/>
</g>
<!-- 1 -->
<g id="node3" class="node"><title>1</title>
<ellipse fill="none" stroke="black" cx="173.039" cy="-22" rx="18" ry="18"/>
<text text-anchor="middle" x="173.039" y="-17.8" font-family="Times,serif" font-size="14.00">1</text>
</g>
<!-- 0&#45;&gt;1 -->
<g id="edge2" class="edge"><title>0&#45;&gt;1</title>
<path fill="none" stroke="black" d="M84.7656,-22C101.872,-22 126.076,-22 144.657,-22"/>
<polygon fill="black" stroke="black" points="144.851,-25.5001 154.851,-22 144.851,-18.5001 144.851,-25.5001"/>
<text text-anchor="middle" x="119.82" y="-24.8" font-family="Times,serif" font-size="14.00">{0, 1}</text>
</g>
<!-- 1&#45;&gt;0 -->
<g id="edge3" class="edge"><title>1&#45;&gt;0</title>
<path fill="none" stroke="black" d="M157.323,-12.4577C151.29,-9.08304 144.079,-5.70409 137.039,-4 122.163,-0.398724 117.55,-0.716413 102.6,-4 98.8854,-4.81587 95.103,-6.02105 91.4272,-7.42805"/>
<polygon fill="black" stroke="black" points="89.8432,-4.30009 82.0661,-11.495 92.6326,-10.7204 89.8432,-4.30009"/>
<text text-anchor="middle" x="119.82" y="-6.8" font-family="Times,serif" font-size="14.00">{0, 1}</text>
</g>
</g>
</svg>
