<?xml version="1.0" encoding="UTF-8" standalone="no"?>
<!DOCTYPE svg PUBLIC "-//W3C//DTD SVG 1.1//EN"
 "http://www.w3.org/Graphics/SVG/1.1/DTD/svg11.dtd">
<!-- Generated by graphviz version 2.38.0 (20140413.2041)
 -->
<!-- Title: NFA Pages: 1 -->
<svg width="268pt" height="76pt"
 viewBox="0.00 0.00 268.47 76.00" xmlns="http://www.w3.org/2000/svg" xmlns:xlink="http://www.w3.org/1999/xlink">
<g id="graph0" class="graph" transform="scale(1 1) rotate(0) translate(4 72)">
<title>NFA</title>
<polygon fill="white" stroke="none" points="-4,4 -4,-72 264.467,-72 264.467,4 -4,4"/>
<!-- init -->
<g id="node1" class="node"><title>init</title>
<ellipse fill="black" stroke="black" cx="1.8" cy="-18" rx="1.8" ry="1.8"/>
</g>
<!-- 0 -->
<g id="node2" class="node"><title>0</title>
<ellipse fill="none" stroke="black" cx="58.6" cy="-18" rx="18" ry="18"/>
<text text-anchor="middle" x="58.6" y="-13.8" font-family="Times,serif" font-size="14.00">0</text>
</g>
<!-- init&#45;&gt;0 -->
<g id="edge1" class="edge"><title>init&#45;&gt;0</title>
<path fill="none" stroke="black" d="M3.75116,-18C7.11489,-18 18.875,-18 30.5503,-18"/>
<polygon fill="black" stroke="black" points="30.5754,-21.5001 40.5754,-18 30.5753,-14.5001 30.5754,-21.5001"/>
</g>
<!-- 0&#45;&gt;0 -->
<g id="edge2" class="edge"><title>0&#45;&gt;0</title>
<path fill="none" stroke="black" d="M52.2208,-35.0373C50.9189,-44.8579 53.0453,-54 58.6,-54 62.0717,-54 64.2042,-50.4289 64.9975,-45.3529"/>
<polygon fill="black" stroke="black" points="68.4971,-45.031 64.9792,-35.0373 61.4971,-45.0435 68.4971,-45.031"/>
<text text-anchor="middle" x="58.6" y="-56.8" font-family="Times,serif" font-size="14.00">b</text>
</g>
<!-- 1 -->
<g id="node3" class="node"><title>1</title>
<ellipse fill="none" stroke="black" cx="136.814" cy="-18" rx="18" ry="18"/>
<text text-anchor="middle" x="136.814" y="-13.8" font-family="Times,serif" font-size="14.00">1</text>
</g>
<!-- 0&#45;&gt;1 -->
<g id="edge3" class="edge"><title>0&#45;&gt;1</title>
<path fill="none" stroke="black" d="M76.8941,-18C86.2488,-18 98.0172,-18 108.572,-18"/>
<polygon fill="black" stroke="black" points="108.588,-21.5001 118.588,-18 108.588,-14.5001 108.588,-21.5001"/>
<text text-anchor="middle" x="97.7069" y="-20.8" font-family="Times,serif" font-size="14.00">a</text>
</g>
<!-- 2 -->
<g id="node4" class="node"><title>2</title>
<ellipse fill="none" stroke="black" cx="242.467" cy="-18" rx="18" ry="18"/>
<text text-anchor="middle" x="242.467" y="-13.8" font-family="Times,serif" font-size="14.00">2</text>
</g>
<!-- 1&#45;&gt;2 -->
<g id="edge4" class="edge"><title>1&#45;&gt;2</title>
<path fill="none" stroke="black" d="M154.93,-18C171.06,-18 195.49,-18 214.285,-18"/>
<polygon fill="black" stroke="black" points="214.326,-21.5001 224.326,-18 214.325,-14.5001 214.326,-21.5001"/>
<text text-anchor="middle" x="189.641" y="-20.8" font-family="Times,serif" font-size="14.00">{a, b}</text>
</g>
</g>
</svg>
