<?xml version="1.0" encoding="UTF-8" standalone="no"?>
<!DOCTYPE svg PUBLIC "-//W3C//DTD SVG 1.1//EN"
 "http://www.w3.org/Graphics/SVG/1.1/DTD/svg11.dtd">
<!-- Generated by graphviz version 2.38.0 (20140413.2041)
 -->
<!-- Title: NFA Pages: 1 -->
<svg width="278pt" height="84pt"
 viewBox="0.00 0.00 278.04 84.00" xmlns="http://www.w3.org/2000/svg" xmlns:xlink="http://www.w3.org/1999/xlink">
<g id="graph0" class="graph" transform="scale(1 1) rotate(0) translate(4 80)">
<title>NFA</title>
<polygon fill="white" stroke="none" points="-4,4 -4,-80 274.039,-80 274.039,4 -4,4"/>
<!-- init -->
<g id="node1" class="node"><title>init</title>
<ellipse fill="black" stroke="black" cx="1.8" cy="-22" rx="1.8" ry="1.8"/>
</g>
<!-- 0 -->
<g id="node2" class="node"><title>0</title>
<ellipse fill="none" stroke="black" cx="58.6" cy="-22" rx="18" ry="18"/>
<text text-anchor="middle" x="58.6" y="-17.8" font-family="Times,serif" font-size="14.00">0</text>
</g>
<!-- init&#45;&gt;0 -->
<g id="edge1" class="edge"><title>init&#45;&gt;0</title>
<path fill="none" stroke="black" d="M3.75116,-22C7.11489,-22 18.875,-22 30.5503,-22"/>
<polygon fill="black" stroke="black" points="30.5754,-25.5001 40.5754,-22 30.5753,-18.5001 30.5754,-25.5001"/>
</g>
<!-- 1 -->
<g id="node3" class="node"><title>1</title>
<ellipse fill="none" stroke="black" cx="165.039" cy="-22" rx="18" ry="18"/>
<text text-anchor="middle" x="165.039" y="-17.8" font-family="Times,serif" font-size="14.00">1</text>
</g>
<!-- 0&#45;&gt;1 -->
<g id="edge2" class="edge"><title>0&#45;&gt;1</title>
<path fill="none" stroke="black" d="M76.8461,-22C93.0978,-22 117.714,-22 136.651,-22"/>
<polygon fill="black" stroke="black" points="136.768,-25.5001 146.768,-22 136.768,-18.5001 136.768,-25.5001"/>
<text text-anchor="middle" x="111.82" y="-24.8" font-family="Times,serif" font-size="14.00">{x, y}</text>
</g>
<!-- 1&#45;&gt;1 -->
<g id="edge3" class="edge"><title>1&#45;&gt;1</title>
<path fill="none" stroke="black" d="M158.306,-39.0373C156.932,-48.8579 159.176,-58 165.039,-58 168.704,-58 170.955,-54.4289 171.792,-49.3529"/>
<polygon fill="black" stroke="black" points="175.292,-49.0307 171.773,-39.0373 168.292,-49.0439 175.292,-49.0307"/>
<text text-anchor="middle" x="165.039" y="-60.8" font-family="Times,serif" font-size="14.00">y</text>
</g>
<!-- 2 -->
<g id="node4" class="node"><title>2</title>
<ellipse fill="none" stroke="black" cx="248.039" cy="-22" rx="18" ry="18"/>
<ellipse fill="none" stroke="black" cx="248.039" cy="-22" rx="22" ry="22"/>
<text text-anchor="middle" x="248.039" y="-17.8" font-family="Times,serif" font-size="14.00">2</text>
</g>
<!-- 1&#45;&gt;2 -->
<g id="edge4" class="edge"><title>1&#45;&gt;2</title>
<path fill="none" stroke="black" d="M183.217,-22C192.649,-22 204.64,-22 215.676,-22"/>
<polygon fill="black" stroke="black" points="215.85,-25.5001 225.85,-22 215.85,-18.5001 215.85,-25.5001"/>
<text text-anchor="middle" x="204.539" y="-24.8" font-family="Times,serif" font-size="14.00">x</text>
</g>
<!-- 2&#45;&gt;2 -->
<g id="edge5" class="edge"><title>2&#45;&gt;2</title>
<path fill="none" stroke="black" d="M240.357,-42.9908C239.408,-53.0872 241.969,-62 248.039,-62 251.928,-62 254.377,-58.3422 255.385,-53.0587"/>
<polygon fill="black" stroke="black" points="258.885,-53.1023 255.722,-42.9908 251.889,-52.868 258.885,-53.1023"/>
<text text-anchor="middle" x="248.039" y="-64.8" font-family="Times,serif" font-size="14.00">{x, y}</text>
</g>
</g>
</svg>
