<?xml version="1.0" encoding="UTF-8" standalone="no"?>
<!DOCTYPE svg PUBLIC "-//W3C//DTD SVG 1.1//EN"
 "http://www.w3.org/Graphics/SVG/1.1/DTD/svg11.dtd">
<!-- Generated by graphviz version 2.38.0 (20140413.2041)
 -->
<!-- Title: NFA Pages: 1 -->
<svg width="670pt" height="268pt"
 viewBox="0.00 0.00 669.60 268.00" xmlns="http://www.w3.org/2000/svg" xmlns:xlink="http://www.w3.org/1999/xlink">
<g id="graph0" class="graph" transform="scale(1 1) rotate(0) translate(4 264)">
<title>NFA</title>
<polygon fill="white" stroke="none" points="-4,4 -4,-264 665.6,-264 665.6,4 -4,4"/>
<!-- init -->
<g id="node1" class="node"><title>init</title>
<ellipse fill="black" stroke="black" cx="1.8" cy="-25" rx="1.8" ry="1.8"/>
</g>
<!-- 0 -->
<g id="node2" class="node"><title>0</title>
<ellipse fill="none" stroke="black" cx="58.6" cy="-25" rx="18" ry="18"/>
<text text-anchor="middle" x="58.6" y="-20.8" font-family="Times,serif" font-size="14.00">0</text>
</g>
<!-- init&#45;&gt;0 -->
<g id="edge1" class="edge"><title>init&#45;&gt;0</title>
<path fill="none" stroke="black" d="M3.75116,-25C7.11489,-25 18.875,-25 30.5503,-25"/>
<polygon fill="black" stroke="black" points="30.5754,-28.5001 40.5754,-25 30.5753,-21.5001 30.5754,-28.5001"/>
</g>
<!-- 0&#45;&gt;0 -->
<g id="edge2" class="edge"><title>0&#45;&gt;0</title>
<path fill="none" stroke="black" d="M52.2208,-42.0373C50.9189,-51.8579 53.0453,-61 58.6,-61 62.0717,-61 64.2042,-57.4289 64.9975,-52.3529"/>
<polygon fill="black" stroke="black" points="68.4971,-52.031 64.9792,-42.0373 61.4971,-52.0435 68.4971,-52.031"/>
<text text-anchor="middle" x="58.6" y="-63.8" font-family="Times,serif" font-size="14.00">0</text>
</g>
<!-- 1 -->
<g id="node3" class="node"><title>1</title>
<ellipse fill="none" stroke="black" cx="137.6" cy="-69" rx="18" ry="18"/>
<text text-anchor="middle" x="137.6" y="-64.8" font-family="Times,serif" font-size="14.00">1</text>
</g>
<!-- 0&#45;&gt;1 -->
<g id="edge3" class="edge"><title>0&#45;&gt;1</title>
<path fill="none" stroke="black" d="M74.8127,-33.693C85.6397,-39.8798 100.402,-48.3157 112.783,-55.3901"/>
<polygon fill="black" stroke="black" points="111.262,-58.5522 121.681,-60.4748 114.735,-52.4745 111.262,-58.5522"/>
<text text-anchor="middle" x="98.1" y="-50.8" font-family="Times,serif" font-size="14.00">1</text>
</g>
<!-- 2 -->
<g id="node4" class="node"><title>2</title>
<ellipse fill="none" stroke="black" cx="216.6" cy="-107" rx="18" ry="18"/>
<text text-anchor="middle" x="216.6" y="-102.8" font-family="Times,serif" font-size="14.00">2</text>
</g>
<!-- 1&#45;&gt;2 -->
<g id="edge4" class="edge"><title>1&#45;&gt;2</title>
<path fill="none" stroke="black" d="M154.182,-76.6899C164.723,-81.892 178.868,-88.8727 190.927,-94.8235"/>
<polygon fill="black" stroke="black" points="189.525,-98.0346 200.041,-99.3216 192.623,-91.7574 189.525,-98.0346"/>
<text text-anchor="middle" x="177.1" y="-91.8" font-family="Times,serif" font-size="14.00">0</text>
</g>
<!-- 5 -->
<g id="node7" class="node"><title>5</title>
<ellipse fill="none" stroke="black" cx="382.6" cy="-192" rx="18" ry="18"/>
<text text-anchor="middle" x="382.6" y="-187.8" font-family="Times,serif" font-size="14.00">3</text>
</g>
<!-- 1&#45;&gt;5 -->
<g id="edge17" class="edge"><title>1&#45;&gt;5</title>
<path fill="none" stroke="black" d="M149.07,-83.0999C160.163,-97.3141 178.786,-119.21 198.6,-134 229.979,-157.422 240.427,-160.696 277.6,-173 303.09,-181.437 333.407,-186.436 354.712,-189.171"/>
<polygon fill="black" stroke="black" points="354.326,-192.649 364.672,-190.369 355.162,-185.699 354.326,-192.649"/>
<text text-anchor="middle" x="256.1" y="-168.8" font-family="Times,serif" font-size="14.00">1</text>
</g>
<!-- 3 -->
<g id="node5" class="node"><title>3</title>
<ellipse fill="none" stroke="black" cx="639.6" cy="-67" rx="18" ry="18"/>
<ellipse fill="none" stroke="black" cx="639.6" cy="-67" rx="22" ry="22"/>
<text text-anchor="middle" x="639.6" y="-62.8" font-family="Times,serif" font-size="14.00">4</text>
</g>
<!-- 2&#45;&gt;3 -->
<g id="edge5" class="edge"><title>2&#45;&gt;3</title>
<path fill="none" stroke="black" d="M233.783,-100.884C249.95,-95.3294 275.634,-88 298.6,-88 298.6,-88 298.6,-88 553.6,-88 572.304,-88 592.665,-83.1484 608.769,-78.1092"/>
<polygon fill="black" stroke="black" points="610.289,-81.2924 618.677,-74.8196 608.083,-74.649 610.289,-81.2924"/>
<text text-anchor="middle" x="422.1" y="-90.8" font-family="Times,serif" font-size="14.00">0</text>
</g>
<!-- 4 -->
<g id="node6" class="node"><title>4</title>
<ellipse fill="none" stroke="black" cx="299.6" cy="-142" rx="18" ry="18"/>
<ellipse fill="none" stroke="black" cx="299.6" cy="-142" rx="22" ry="22"/>
<text text-anchor="middle" x="299.6" y="-137.8" font-family="Times,serif" font-size="14.00">5</text>
</g>
<!-- 2&#45;&gt;4 -->
<g id="edge8" class="edge"><title>2&#45;&gt;4</title>
<path fill="none" stroke="black" d="M234.149,-112.351C241.961,-115.018 251.357,-118.433 259.6,-122 263.266,-123.587 267.069,-125.364 270.798,-127.186"/>
<polygon fill="black" stroke="black" points="269.292,-130.346 279.796,-131.728 272.446,-124.097 269.292,-130.346"/>
<text text-anchor="middle" x="256.1" y="-124.8" font-family="Times,serif" font-size="14.00">1</text>
</g>
<!-- 3&#45;&gt;0 -->
<g id="edge6" class="edge"><title>3&#45;&gt;0</title>
<path fill="none" stroke="black" d="M626.824,-49.0452C612.227,-29.199 585.355,-0 553.6,-0 136.6,-0 136.6,-0 136.6,-0 118.443,-0 99.0023,-6.3665 84.1978,-12.6739"/>
<polygon fill="black" stroke="black" points="82.4241,-9.63511 74.7619,-16.9522 85.3148,-16.0104 82.4241,-9.63511"/>
<text text-anchor="middle" x="343.1" y="-2.8" font-family="Times,serif" font-size="14.00">0</text>
</g>
<!-- 3&#45;&gt;1 -->
<g id="edge7" class="edge"><title>3&#45;&gt;1</title>
<path fill="none" stroke="black" d="M618.677,-59.1804C601.664,-53.2098 576.401,-46 553.6,-46 215.6,-46 215.6,-46 215.6,-46 197.69,-46 178.379,-51.7837 163.577,-57.5505"/>
<polygon fill="black" stroke="black" points="162.02,-54.407 154.121,-61.4689 164.7,-60.8737 162.02,-54.407"/>
<text text-anchor="middle" x="382.6" y="-48.8" font-family="Times,serif" font-size="14.00">1</text>
</g>
<!-- 4&#45;&gt;2 -->
<g id="edge9" class="edge"><title>4&#45;&gt;2</title>
<path fill="none" stroke="black" d="M277.329,-141.704C269.311,-140.962 260.279,-139.345 252.6,-136 247.264,-133.676 242.098,-130.284 237.447,-126.633"/>
<polygon fill="black" stroke="black" points="239.563,-123.835 229.704,-119.954 234.991,-129.136 239.563,-123.835"/>
<text text-anchor="middle" x="256.1" y="-140.8" font-family="Times,serif" font-size="14.00">0</text>
</g>
<!-- 4&#45;&gt;5 -->
<g id="edge10" class="edge"><title>4&#45;&gt;5</title>
<path fill="none" stroke="black" d="M319.698,-151.707C328.086,-156.141 337.97,-161.601 346.6,-167 350.81,-169.634 355.194,-172.586 359.378,-175.514"/>
<polygon fill="black" stroke="black" points="357.398,-178.401 367.566,-181.379 361.475,-172.71 357.398,-178.401"/>
<text text-anchor="middle" x="343.1" y="-169.8" font-family="Times,serif" font-size="14.00">1</text>
</g>
<!-- 6 -->
<g id="node8" class="node"><title>6</title>
<ellipse fill="none" stroke="black" cx="465.6" cy="-178" rx="18" ry="18"/>
<ellipse fill="none" stroke="black" cx="465.6" cy="-178" rx="22" ry="22"/>
<text text-anchor="middle" x="465.6" y="-173.8" font-family="Times,serif" font-size="14.00">7</text>
</g>
<!-- 5&#45;&gt;6 -->
<g id="edge11" class="edge"><title>5&#45;&gt;6</title>
<path fill="none" stroke="black" d="M400.383,-189.099C410.033,-187.431 422.457,-185.284 433.802,-183.323"/>
<polygon fill="black" stroke="black" points="434.548,-186.746 443.806,-181.594 433.356,-179.848 434.548,-186.746"/>
<text text-anchor="middle" x="422.1" y="-187.8" font-family="Times,serif" font-size="14.00">1</text>
</g>
<!-- 7 -->
<g id="node9" class="node"><title>7</title>
<ellipse fill="none" stroke="black" cx="552.6" cy="-154" rx="18" ry="18"/>
<ellipse fill="none" stroke="black" cx="552.6" cy="-154" rx="22" ry="22"/>
<text text-anchor="middle" x="552.6" y="-149.8" font-family="Times,serif" font-size="14.00">6</text>
</g>
<!-- 5&#45;&gt;7 -->
<g id="edge16" class="edge"><title>5&#45;&gt;7</title>
<path fill="none" stroke="black" d="M394.867,-205.365C405.88,-217.301 423.838,-233.956 443.6,-241 462.02,-247.566 470.15,-249.826 487.6,-241 511.289,-229.018 528.351,-203.68 538.87,-183.423"/>
<polygon fill="black" stroke="black" points="542.106,-184.773 543.376,-174.255 535.824,-181.686 542.106,-184.773"/>
<text text-anchor="middle" x="465.6" y="-248.8" font-family="Times,serif" font-size="14.00">0</text>
</g>
<!-- 6&#45;&gt;6 -->
<g id="edge12" class="edge"><title>6&#45;&gt;6</title>
<path fill="none" stroke="black" d="M457.917,-198.991C456.969,-209.087 459.53,-218 465.6,-218 469.489,-218 471.937,-214.342 472.946,-209.059"/>
<polygon fill="black" stroke="black" points="476.446,-209.102 473.283,-198.991 469.45,-208.868 476.446,-209.102"/>
<text text-anchor="middle" x="465.6" y="-220.8" font-family="Times,serif" font-size="14.00">1</text>
</g>
<!-- 6&#45;&gt;7 -->
<g id="edge13" class="edge"><title>6&#45;&gt;7</title>
<path fill="none" stroke="black" d="M487.176,-172.19C497.408,-169.301 509.975,-165.753 521.284,-162.56"/>
<polygon fill="black" stroke="black" points="522.541,-165.842 531.213,-159.756 520.639,-159.105 522.541,-165.842"/>
<text text-anchor="middle" x="509.1" y="-168.8" font-family="Times,serif" font-size="14.00">0</text>
</g>
<!-- 7&#45;&gt;3 -->
<g id="edge14" class="edge"><title>7&#45;&gt;3</title>
<path fill="none" stroke="black" d="M568.796,-138.446C581.971,-124.961 601.217,-105.262 616.165,-89.9627"/>
<polygon fill="black" stroke="black" points="619.05,-92.018 623.535,-82.4192 614.043,-87.1261 619.05,-92.018"/>
<text text-anchor="middle" x="596.1" y="-115.8" font-family="Times,serif" font-size="14.00">0</text>
</g>
<!-- 7&#45;&gt;4 -->
<g id="edge15" class="edge"><title>7&#45;&gt;4</title>
<path fill="none" stroke="black" d="M530.596,-151.263C518.124,-149.747 501.986,-147.977 487.6,-147 432.894,-143.283 369.01,-142.294 331.849,-142.052"/>
<polygon fill="black" stroke="black" points="331.677,-138.551 321.66,-142 331.642,-145.551 331.677,-138.551"/>
<text text-anchor="middle" x="422.1" y="-145.8" font-family="Times,serif" font-size="14.00">1</text>
</g>
</g>
</svg>
